<svg width="25" height="24" viewBox="0 0 25 24" fill="none" xmlns="http://www.w3.org/2000/svg">
<path d="M14.274 14.439C15.04 16.7093 15.5551 19.0566 15.81 21.439C14.7463 21.8114 13.6271 22.0011 12.5 22C10.5173 22.003 8.57876 21.4139 6.93303 20.308C7.69988 18.887 8.74497 17.635 10.006 16.6265C11.2671 15.618 12.7182 14.8737 14.273 14.438L14.274 14.439ZM22.073 14.902C21.359 17.2482 19.8095 19.2513 17.718 20.532C17.4384 18.3344 16.9495 16.1686 16.258 14.064C18.2358 13.8596 20.2334 14.1475 22.073 14.902ZM12.645 10.485C12.977 11.163 13.288 11.855 13.575 12.558C10.1116 13.5731 7.17244 15.8834 5.36803 19.009C4.35409 17.97 3.57656 16.7243 3.08864 15.357C2.60072 13.9897 2.41392 12.5332 2.54103 11.087C5.88403 11.795 9.41103 11.589 12.645 10.485ZM20.22 5.644C21.8861 7.67864 22.6901 10.2843 22.46 12.904C20.2602 12.076 17.8883 11.8113 15.56 12.134C15.2386 11.3217 14.8867 10.5218 14.505 9.736C16.6474 8.7383 18.5853 7.35068 20.22 5.644ZM7.76603 3.19C9.26042 4.88504 10.5773 6.72865 11.696 8.692C8.85784 9.59595 5.83299 9.74416 2.92003 9.122C3.68669 6.58128 5.42933 4.44812 7.76603 3.19ZM12.5 2C14.888 2 17.081 2.837 18.8 4.234C17.3115 5.79515 15.5401 7.05953 13.58 7.96C12.476 5.9838 11.1833 4.1191 9.72003 2.392C10.6237 2.13132 11.5595 1.99936 12.5 2Z" fill="white"/>
</svg>
