<svg width="24" height="24" viewBox="0 0 24 24" fill="none" xmlns="http://www.w3.org/2000/svg">
<path d="M14.76 11.1899C14.6208 11.1894 14.4829 11.2179 14.3553 11.2737C14.2277 11.3295 14.1132 11.4113 14.0191 11.5139C13.9249 11.6165 13.8533 11.7376 13.8087 11.8695C13.764 12.0015 13.7475 12.1412 13.76 12.2799H15.82C15.8333 12.136 15.8153 11.991 15.7671 11.8547C15.719 11.7185 15.6419 11.5943 15.5412 11.4907C15.4404 11.3871 15.3184 11.3066 15.1836 11.2546C15.0487 11.2027 14.9042 11.1806 14.76 11.1899ZM9.49001 12.2999H8.26001V14.2399H9.26001C10.26 14.2399 10.7 13.9099 10.7 13.2399C10.7 12.5699 10.24 12.2999 9.49001 12.2999ZM10.36 10.5199C10.36 9.98992 10.01 9.66992 9.41001 9.66992H8.26001V11.4099H9.11001C10 11.4099 10.36 11.0899 10.36 10.5199Z" fill="white"/>
<path d="M12 2C10.0222 2 8.08879 2.58649 6.4443 3.6853C4.79981 4.78412 3.51809 6.3459 2.76121 8.17317C2.00433 10.0004 1.8063 12.0111 2.19215 13.9509C2.578 15.8907 3.53041 17.6725 4.92894 19.0711C6.32746 20.4696 8.10929 21.422 10.0491 21.8079C11.9889 22.1937 13.9996 21.9957 15.8268 21.2388C17.6541 20.4819 19.2159 19.2002 20.3147 17.5557C21.4135 15.9112 22 13.9778 22 12C22 10.6868 21.7413 9.38642 21.2388 8.17317C20.7363 6.95991 19.9997 5.85752 19.0711 4.92893C18.1425 4.00035 17.0401 3.26375 15.8268 2.7612C14.6136 2.25866 13.3132 2 12 2ZM9.7 15.2H7V8.7H9.7C10.87 8.7 11.64 9.31 11.64 10.3C11.6538 10.6326 11.5486 10.9592 11.3434 11.2213C11.1381 11.4834 10.8462 11.6637 10.52 11.73C10.7267 11.7348 10.9303 11.7817 11.1183 11.8679C11.3063 11.9541 11.4747 12.0777 11.6132 12.2312C11.7518 12.3848 11.8575 12.5649 11.924 12.7607C11.9905 12.9565 12.0164 13.1639 12 13.37C12 14.53 11 15.2 9.7 15.2ZM13.25 9.2H16.25V9.7H13.25V9.2ZM17 13.05H13.7V13.19C13.6828 13.342 13.6984 13.4958 13.7457 13.6413C13.793 13.7867 13.8709 13.9203 13.9742 14.0331C14.0775 14.1458 14.2037 14.2351 14.3445 14.295C14.4852 14.3548 14.6371 14.3838 14.79 14.38C15.0047 14.4133 15.2241 14.3679 15.4079 14.2522C15.5917 14.1364 15.7274 13.958 15.79 13.75H17C16.8923 14.23 16.6114 14.6535 16.211 14.9394C15.8107 15.2254 15.319 15.3538 14.83 15.3C14.5175 15.3316 14.2018 15.2943 13.9052 15.1907C13.6086 15.0871 13.3384 14.9199 13.1134 14.7006C12.8884 14.4814 12.7142 14.2155 12.6031 13.9217C12.4919 13.6279 12.4465 13.3133 12.47 13V12.56C12.4488 12.2565 12.4934 11.9519 12.6009 11.6673C12.7084 11.3826 12.8762 11.1246 13.0928 10.9109C13.3093 10.6972 13.5696 10.5328 13.8556 10.4291C14.1417 10.3254 14.4468 10.2847 14.75 10.31C15.0522 10.2906 15.3551 10.3362 15.6382 10.4437C15.9213 10.5512 16.1781 10.7182 16.3913 10.9332C16.6045 11.1483 16.7691 11.4066 16.8741 11.6906C16.9791 11.9747 17.0221 12.278 17 12.58V13.05Z" fill="white"/>
</svg>
