<svg width="25" height="24" viewBox="0 0 25 24" fill="none" xmlns="http://www.w3.org/2000/svg">
<path d="M16.5 3C17.8261 3 19.0979 3.52678 20.0355 4.46447C20.9732 5.40215 21.5 6.67392 21.5 8V16C21.5 17.3261 20.9732 18.5979 20.0355 19.5355C19.0979 20.4732 17.8261 21 16.5 21H8.5C7.17392 21 5.90215 20.4732 4.96447 19.5355C4.02678 18.5979 3.5 17.3261 3.5 16V8C3.5 6.67392 4.02678 5.40215 4.96447 4.46447C5.90215 3.52678 7.17392 3 8.5 3H16.5ZM12.5 8C11.4391 8 10.4217 8.42143 9.67157 9.17157C8.92143 9.92172 8.5 10.9391 8.5 12C8.5 13.0609 8.92143 14.0783 9.67157 14.8284C10.4217 15.5786 11.4391 16 12.5 16C13.5609 16 14.5783 15.5786 15.3284 14.8284C16.0786 14.0783 16.5 13.0609 16.5 12C16.5 10.9391 16.0786 9.92172 15.3284 9.17157C14.5783 8.42143 13.5609 8 12.5 8ZM12.5 10C13.0304 10 13.5391 10.2107 13.9142 10.5858C14.2893 10.9609 14.5 11.4696 14.5 12C14.5 12.5304 14.2893 13.0391 13.9142 13.4142C13.5391 13.7893 13.0304 14 12.5 14C11.9696 14 11.4609 13.7893 11.0858 13.4142C10.7107 13.0391 10.5 12.5304 10.5 12C10.5 11.4696 10.7107 10.9609 11.0858 10.5858C11.4609 10.2107 11.9696 10 12.5 10ZM17 6.5C16.7348 6.5 16.4804 6.60536 16.2929 6.79289C16.1054 6.98043 16 7.23478 16 7.5C16 7.76522 16.1054 8.01957 16.2929 8.20711C16.4804 8.39464 16.7348 8.5 17 8.5C17.2652 8.5 17.5196 8.39464 17.7071 8.20711C17.8946 8.01957 18 7.76522 18 7.5C18 7.23478 17.8946 6.98043 17.7071 6.79289C17.5196 6.60536 17.2652 6.5 17 6.5Z" fill="white"/>
</svg>
