<svg width="25" height="24" viewBox="0 0 25 24" fill="none" xmlns="http://www.w3.org/2000/svg">
<path fill-rule="evenodd" clip-rule="evenodd" d="M12.5 4C13.355 4 14.232 4.022 15.082 4.058L16.086 4.106L17.047 4.163L17.947 4.224L18.769 4.288C19.661 4.35628 20.5004 4.73695 21.1395 5.36304C21.7786 5.98913 22.1764 6.82054 22.263 7.711L22.303 8.136L22.378 9.046C22.448 9.989 22.5 11.017 22.5 12C22.5 12.983 22.448 14.011 22.378 14.954L22.303 15.864C22.29 16.01 22.277 16.151 22.263 16.289C22.1764 17.1796 21.7784 18.0112 21.1391 18.6373C20.4999 19.2634 19.6602 19.6439 18.768 19.712L17.948 19.775L17.048 19.837L16.086 19.894L15.082 19.942C14.2218 19.9794 13.361 19.9987 12.5 20C11.639 19.9987 10.7782 19.9794 9.918 19.942L8.914 19.894L7.953 19.837L7.053 19.775L6.231 19.712C5.33895 19.6437 4.49955 19.2631 3.86047 18.637C3.22139 18.0109 2.82357 17.1795 2.737 16.289L2.697 15.864L2.622 14.954C2.54554 13.9711 2.50484 12.9858 2.5 12C2.5 11.017 2.552 9.989 2.622 9.046L2.697 8.136C2.71 7.99 2.723 7.849 2.737 7.711C2.82354 6.8207 3.22122 5.98942 3.86009 5.36334C4.49897 4.73727 5.33813 4.3565 6.23 4.288L7.051 4.224L7.951 4.163L8.913 4.106L9.917 4.058C10.7775 4.02063 11.6387 4.0013 12.5 4ZM10.5 9.575V14.425C10.5 14.887 11 15.175 11.4 14.945L15.6 12.52C15.6914 12.4674 15.7673 12.3916 15.8201 12.3003C15.8729 12.209 15.9007 12.1055 15.9007 12C15.9007 11.8945 15.8729 11.791 15.8201 11.6997C15.7673 11.6084 15.6914 11.5326 15.6 11.48L11.4 9.056C11.3088 9.00332 11.2053 8.9756 11.0999 8.97562C10.9945 8.97563 10.8911 9.00339 10.7998 9.0561C10.7086 9.1088 10.6329 9.1846 10.5802 9.27587C10.5276 9.36713 10.4999 9.47065 10.5 9.576V9.575Z" fill="white"/>
</svg>
